#!OML:ASF E:/inclinewalkrobotboard/Project1/Captureday1/Session1/subject1.ASF
:FULLY-SPECIFIED
:DEGREES
1
root 0 0 0 12.15054077103131 -10.30764941641455 -6.002029991358631
lowerback 2.955030682673578 0.7777904422629411 -0.16479463746464806
upperback -4.4598876263157505 1.0804349473244619 1.9333083019861268
thorax -6.337921588054191 0.6105680146832053 2.1621163208261387
lowerneck -13.891919765028543 -1.2840886388589952 -0.8896528305944907
upperneck 21.391847887581413 -2.010918398245492 2.1941088002659295
head 9.216633379502374 -0.8340619427542949 0.5457105042991461
rclavicle -6.042357571721673E-16 -5.21809414979747E-16
rhumerus -16.800079719230524 -19.57640055762485 -70.26524802067937
rradius 27.237469484413282
rwrist 9.691725016913535
rhand -12.676322709321859 18.41839587333513
rfingers 7.125019999999966
rthumb 13.368395736532387 -10.691892988468561
lclavicle -4.0393591241750444E-16 -5.057986055509499E-16
lhumerus -24.235991708131095 2.489174548690735 69.65503000605848
lradius 30.227115078741832
lwrist -0.714214328041912
lhand -17.712709694560203 23.458020671524583
lfingers 7.125019999999951
lthumb 8.522946802541014 52.437095330561085
rfemur 3.9259442717601445 -16.145475906984927 6.112580787166706
rtibia 39.80088149250394
rfoot -9.742266476037486 -9.212488159885268
rtoes 8.00080112742057
lfemur -24.188691477288987 2.3375712316481785 -23.0223813778692
ltibia 37.74219727403656
lfoot -12.56135918461926 4.3940638436443145
ltoes 1.7941494946176384
2
root 0 0 0 11.784315618107087 -10.122390947518548 -5.931881725802374
lowerback 3.1429242911092823 0.7715664458024609 -0.12420283512361152
upperback -4.333980517840914 1.079875575665393 1.9254781330564152
thorax -6.304969894981595 0.6079816258561442 2.1291651335948685
lowerneck -13.969229742622147 -1.3296467295163938 -0.9147697820402912
upperneck 21.342507163037478 -2.058634413048913 2.151730930431277
head 9.210145891038476 -0.861485562308009 0.5317983886579241
rclavicle -6.107282926242177E-16 -5.313777119996485E-16
rhumerus -17.428170354458445 -19.5236737850662 -70.6229611572157
rradius 27.228681155219764
rwrist 9.397588111292185
rhand -12.942624856208136 18.63583228681093
rfingers 7.125019999999972
rthumb 13.11696781684122 -10.508359496576723
lclavicle -4.0994521107540483E-16 -5.024224362783761E-16
lhumerus -24.38568453468364 2.461631564139199 69.87994165227181
lradius 30.187973101041457
lwrist -0.607474423089263
lhand -17.878134305371493 23.452959655236665
lfingers 7.125019999999954
lthumb 8.36197652564277 52.451716383507794
rfemur 3.3644991213942177 -15.455051797341028 6.793638112285095
rtibia 39.745582208891285
rfoot -9.674711131511186 -9.123463635311017
rtoes 7.861790967186849
lfemur -23.60257801335852 2.167947328514982 -22.888824438249305
ltibia 37.53483244770788
lfoot -12.361622054340067 4.110283689623879
ltoes 1.5713263129124737
3
root 0 0 0 11.367023501780167 -9.927732730812869 -5.850486004847557
lowerback 3.359050043884726 0.7660280834119866 -0.08010161356422829
upperback -4.188151916973792 1.0801070823325802 1.9139054992446767
thorax -6.267508716263785 0.6056754557940323 2.089907872502202
lowerneck -14.06061767775211 -1.378087864458232 -0.9409732834183245
upperneck 21.28200128097341 -2.108840905037445 2.103449515994542
head 9.201800136493079 -0.8894974223879545 0.5163027961242984
rclavicle -6.167565716713559E-16 -5.309267485533413E-16
rhumerus -17.99773793201168 -19.46956705490472 -70.97677724395037
rradius 27.216276686468593
rwrist 9.132422004117519
rhand -13.189420934492226 18.837609254855643
rfingers 7.125019999999977
rthumb 12.881646106391383 -10.336569338574604
lclavicle -4.167450930616972E-16 -4.971766125905797E-16
lhumerus -24.538875794385547 2.4318022438474802 70.1096631613605
lradius 30.146925924077514
lwrist -0.5009040109503395
lhand -18.044572962367972 23.44970203457138
lfingers 7.125019999999957
lthumb 8.199887477278146 52.46741602306019
rfemur 2.808969405268442 -14.774086316568571 7.4577300011048635
rtibia 39.70629869668065
rfoot -9.602237261346621 -9.035067612491165
rtoes 7.7299746948976455
lfemur -23.035018641044875 2.0042267305865824 -22.759460074635896
ltibia 37.33375744396674
lfoot -12.172438475348846 3.835255035243213
ltoes 1.3556142471395418
4
root 0 0 0 10.910438362249835 -9.71697010936834 -5.7603703809261555
lowerback 3.5951239786967824 0.7598759618713062 -0.033209890058594205
upperback -4.028569290850478 1.0801252145955282 1.9006104893745461
thorax -6.226336586985548 0.6030146134402864 2.0469899973349497
lowerneck -14.160854188142586 -1.4305976883827567 -0.9692958054993676
upperneck 21.21678941086689 -2.163644445946011 2.0501069087108057
head 9.19306029831564 -0.9198106748804361 0.49926211130787135
rclavicle -6.223509625279323E-16 -5.303071177910674E-16
rhumerus -18.591838330414284 -19.41157069056252 -71.35561385713744
rradius 27.20267109169994
rwrist 8.854326992808605
rhand -13.450559847814718 19.050984966554402
rfingers 7.125019999999982
rthumb 12.63190882078789 -10.154547630155012
lclavicle -4.2449964056525637E-16 -4.90956818159658E-16
lhumerus -24.718378349729 2.395949128705162 70.3787649279974
lradius 30.099234114938326
lwrist -0.3759922072489168
lhand -18.239421062406116 23.446610843642244
lfingers 7.125019999999959
lthumb 8.01022418146469 52.4862873736558
rfemur 2.26275598751333 -14.10575150564776 8.110116163090169
rtibia 39.668796468594984
rfoot -9.530959087919937 -8.948120583719657
rtoes 7.601026858512775
lfemur -22.412457201057855 1.8233210604393886 -22.61911169436987
ltibia 37.10607295413895
lfoot -11.971393888424158 3.5351842902273507
ltoes 1.11895243452501
5
root 0 0 0 10.379471826200692 -9.47396836072243 -5.65432484039302
lowerback 3.8695920513848714 0.7527896874935835 0.02019233236553597
upperback -3.8427647540515766 1.0798438822317522 1.8846408411239997
thorax -6.178606658878114 0.5998628440132715 1.9972436053848215
lowerneck -14.277727415255708 -1.4910022272456502 -1.001931953957257
upperneck 21.140575699383533 -2.226877784047003 1.9880999324999407
head 9.182723666378042 -0.9544734251142061 0.47954137608643765
rclavicle -6.285499479731613E-16 -5.27299503131155E-16
rhumerus -19.222905724658077 -19.348366012717637 -71.76546043301187
rradius 27.186807093308186
rwrist 8.560449595224265
rhand -13.72918068320192 19.2787538418113
rfingers 7.125019999999989
rthumb 12.36508148408613 -9.960006363368688
lclavicle -4.3396786867664355E-16 -4.833652035178553E-16
lhumerus -24.936043025953254 2.352500037581861 70.70417348675639
lradius 30.041031186415218
lwrist -0.22555452512777663
lhand -18.47471551794212 23.44338880465612
lfingers 7.125019999999963
lthumb 7.780962651544002 52.50955317953067
rfemur 1.6407004360723647 -13.347556288464332 8.848822441481516
rtibia 39.632737264841566
rfoot -9.447866209759056 -8.849414146915242
rtoes 7.456767797544593
lfemur -21.714273834130594 1.6203127924317613 -22.461886918681174
ltibia 36.850068228239216
lfoot -11.746952080388994 3.198913380500178
ltoes 0.8536568077827749
6
root 0 0 0 9.771915541487548 -9.196417878751745 -5.531973415696456
lowerback 4.183471034686039 0.7446084075732349 0.08045277478580948
upperback -3.630167952974726 1.0791684361299474 1.8661655906769266
thorax -6.124138004147572 0.5961295905275256 1.9405793992703686
lowerneck -14.411478136772397 -1.5598082123422334 -1.0392146453469817
upperneck 21.05330013824653 -2.299068659948171 1.9172105131399126
head 9.170819676386866 -0.9938415605917327 0.4570430245010738
rclavicle -6.350856956781555E-16 -5.228695001204471E-16
rhumerus -19.891367609982133 -19.28045518906065 -72.20471400405197
rradius 27.169119578828948
rwrist 8.249684598622405
rhand -14.025571148370526 19.521034939479144
rfingers 7.125019999999995
rthumb 12.080999128299407 -9.752910857387421
lclavicle -4.454679169990163E-16 -4.744696491048654E-16
lhumerus -25.194534174860607 2.3012715384628732 71.09001297973579
lradius 29.971456974038894
lwrist -0.04769179923500033
lhand -18.754288399096563 23.439941559032654
lfingers 7.125019999999966
lthumb 7.508550169250967 52.537575763674035
rfemur 0.9504927006262704 -12.507815218997933 9.666170056100356
rtibia 39.59673189638773
rfoot -9.354536989312361 -8.74001310534873
rtoes 7.298027059672638
lfemur -20.934903598959146 1.393553843954244 -22.286542786807235
ltibia 36.56367190507143
lfoot -11.497272429299423 2.8237303908139033
ltoes 0.5575647134646076
7
root 0 0 0 9.087366545407775 -8.881960798228251 -5.3925524771883815
lowerback 4.536605652184474 0.7350507642652733 0.14735710921916767
upperback -3.3908690868096825 1.0777480885520476 1.8454769187809352
thorax -6.062905205441422 0.5916416683072421 1.8773521794453654
lowerneck -14.561776195584342 -1.6373940916044951 -1.081511599595088
upperneck 20.955309019877753 -2.380610992291503 1.8374430680130347
head 9.157426558472563 -1.038212696824869 0.43175860509064956
rclavicle -6.41853790246829E-16 -5.17418750246299E-16
rhumerus -20.590834632490704 -19.20872235095452 -72.66814765406116
rradius 27.14995795219265
rwrist 7.924789237871659
rhand -14.336720494894028 19.7753182899538
rfingers 7.125020000000002
rthumb 11.782582608975071 -9.535446417683591
lclavicle -4.5916926115524E-16 -4.642963062987058E-16
lhumerus -25.49526187489218 2.2423186888513653 71.53842882581424
lradius 29.889987619678074
lwrist 0.15846786475086994
lhand -19.080188677686973 23.436178741702822
lfingers 7.125019999999972
lthumb 7.191054323062215 52.57054409326864
rfemur 0.19875114498081814 -11.59420662455581 10.554801565149333
rtibia 39.56063585756253
rfoot -9.252014047994239 -8.620929789584206
rtoes 7.126036020189282
lfemur -20.07745106486913 1.1439771668954375 -22.093654059940956
ltibia 36.248421450902434
lfoot -11.223063600148418 2.4109937284144713
ltoes 0.23177177005803173
8
root 0 0 0 8.3308890834283 -8.531043803747941 -5.2362982053441405
lowerback 4.926033661815368 0.7239314524133307 0.2200167961815409
upperback -3.12686366008907 1.0752061414594523 1.8229604424701593
thorax -5.99542283435404 0.5862556756317665 1.808423447250828
lowerneck -14.727139919605788 -1.7233958861953331 -1.1288008856926015
upperneck 20.84763800492236 -2.4711558153269175 1.7494758635980148
head 9.142683749895394 -1.087420334402309 0.4039035422445346
rclavicle -6.487242770202768E-16 -5.1115438448952745E-16
rhumerus -21.30831745617286 -19.13455002782991 -73.14691669176831
rradius 27.1297196377435
rwrist 7.591757180835097
rhand -14.656819915859998 20.03682660701596
rfingers 7.125020000000009
rthumb 11.475402690901896 -9.311715209913745
lclavicle -4.751707218993836E-16 -4.529361195134394E-16
lhumerus -25.83747469395849 2.176035272341493 72.0483612059526
lradius 29.79666525476867
lwrist 0.39231710236738593
lhand -19.452000260806628 23.432099412494498
lfingers 7.125019999999977
lthumb 6.828922073516527 52.60843947120202
rfemur -0.6033727762344085 -10.620115313447315 11.50169667477563
rtibia 39.52496771997283
rfoot -9.141812058587341 -8.493924336443522
rtoes 6.943227136165845
lfemur -19.153790723845084 0.8750726577924137 -21.88578945576345
ltibia 35.90915858197065
lfoot -10.927754999559458 1.9662885426281775
ltoes -0.11931204626413461
